<?xml version="1.0" standalone="no"?>
<!DOCTYPE svg PUBLIC "-//W3C//DTD SVG 20010904//EN"
 "http://www.w3.org/TR/2001/REC-SVG-20010904/DTD/svg10.dtd">
<svg version="1.0" xmlns="http://www.w3.org/2000/svg"
 width="619.000000pt" height="619.000000pt" viewBox="0 0 619.000000 619.000000"
 preserveAspectRatio="xMidYMid meet">
<metadata>
Created by potrace 1.14, written by Peter Selinger 2001-2017
</metadata>
<g transform="translate(0.000000,619.000000) scale(0.100000,-0.100000)"
fill="#000000" stroke="none">
<path d="M2718 5734 c-2 -1 -25 -4 -53 -7 -230 -25 -526 -138 -764 -294 -384
-250 -704 -675 -845 -1123 -15 -47 -31 -98 -36 -115 -5 -16 -12 -48 -16 -70
-3 -22 -8 -43 -10 -46 -4 -7 -24 -128 -32 -199 -9 -77 -9 -403 1 -475 48 -381
183 -711 475 -1160 66 -101 587 -843 625 -890 4 -5 96 -135 205 -288 108 -152
269 -378 357 -502 377 -531 380 -535 453 -554 50 -14 90 -6 132 28 27 21 193
241 282 375 7 10 27 37 43 60 17 22 48 67 70 99 22 31 60 86 85 121 39 55 301
425 415 586 119 168 176 249 228 323 32 45 109 153 170 240 62 88 143 202 180
255 329 467 504 811 543 1067 25 165 -37 264 -181 290 -22 4 -260 9 -530 10
-269 2 -639 4 -820 5 l-331 2 -3 707 c-3 888 -7 1103 -19 1166 -35 169 -122
282 -265 345 -60 26 -200 50 -284 48 -40 -1 -74 -2 -75 -4z m138 -471 c11 -28
11 -1773 -1 -1782 -5 -5 -50 -8 -100 -9 -93 0 -106 -2 -190 -23 -171 -42 -332
-184 -403 -354 -40 -96 -52 -161 -48 -270 19 -591 773 -820 1130 -342 73 98
111 222 115 377 1 58 5 107 7 110 10 10 1186 0 1205 -11 10 -5 22 -21 25 -35
11 -42 -33 -115 -281 -464 -205 -290 -297 -420 -356 -504 -31 -45 -170 -243
-309 -441 -140 -198 -302 -430 -362 -516 -107 -154 -133 -179 -183 -179 -44 0
-59 18 -305 370 -25 36 -208 296 -394 560 -726 1032 -755 1076 -811 1205 -14
33 -30 69 -35 80 -22 47 -79 256 -90 330 -6 44 -13 91 -16 105 -6 33 -6 296 0
341 3 18 8 51 11 72 65 458 341 890 730 1142 172 112 306 172 495 221 146 39
155 40 166 17z m3 -2306 c6 -16 7 -43 2 -135 0 -12 -16 -39 -35 -59 -31 -34
-38 -37 -89 -37 -48 -1 -60 3 -87 29 -50 48 -56 109 -15 172 24 36 71 52 149
51 57 -1 69 -5 75 -21z"/>
</g>
</svg>
